<?xml version="1.0" encoding="utf-8"?>
<svg xmlns="http://www.w3.org/2000/svg" width="1560" height="1560" class="segno"><g transform="scale(40)"><path fill="#fdf9ff" d="M0 0h39v39h-39z"/><path class="qrline" stroke="#6d28d9" d="M3 3.5h7m3 0h2m1 0h1m3 0h4m2 0h1m2 0h7m-33 1h1m5 0h1m1 0h3m1 0h2m2 0h1m1 0h1m2 0h3m2 0h1m5 0h1m-33 1h1m1 0h3m1 0h1m1 0h1m2 0h1m1 0h1m2 0h2m3 0h2m1 0h1m1 0h1m1 0h3m1 0h1m-33 1h1m1 0h3m1 0h1m2 0h3m4 0h1m3 0h3m1 0h1m1 0h1m1 0h3m1 0h1m-33 1h1m1 0h3m1 0h1m2 0h3m1 0h1m2 0h2m2 0h1m2 0h1m2 0h1m1 0h3m1 0h1m-33 1h1m5 0h1m4 0h1m2 0h1m1 0h1m1 0h3m1 0h1m3 0h1m5 0h1m-33 1h7m1 0h1m1 0h1m1 0h1m1 0h1m1 0h1m1 0h1m1 0h1m1 0h1m1 0h1m1 0h7m-24 1h1m1 0h1m5 0h2m1 0h1m1 0h2m-23 1h3m1 0h2m2 0h3m1 0h1m2 0h2m1 0h4m1 0h1m5 0h2m-32 1h3m2 0h1m7 0h1m1 0h1m2 0h4m1 0h1m2 0h2m1 0h2m1 0h1m-33 1h1m1 0h7m1 0h3m2 0h1m1 0h1m2 0h1m2 0h2m1 0h4m1 0h2m-30 1h1m5 0h1m1 0h1m1 0h3m2 0h1m1 0h1m4 0h3m1 0h1m1 0h1m-28 1h3m2 0h1m8 0h2m1 0h1m1 0h2m2 0h3m2 0h1m-32 1h1m2 0h2m3 0h1m8 0h1m2 0h3m3 0h1m1 0h1m1 0h1m-32 1h3m2 0h2m2 0h1m3 0h6m7 0h4m-30 1h3m2 0h1m1 0h2m2 0h1m1 0h1m5 0h4m1 0h3m2 0h2m-30 1h1m4 0h2m1 0h2m1 0h1m1 0h1m1 0h1m1 0h6m1 0h2m1 0h1m1 0h1m-31 1h6m1 0h4m3 0h4m2 0h5m1 0h1m1 0h2m1 0h2m-32 1h3m1 0h2m1 0h1m1 0h1m1 0h2m2 0h2m2 0h1m1 0h1m2 0h4m1 0h2m-31 1h1m2 0h2m2 0h2m1 0h5m1 0h1m3 0h1m6 0h1m2 0h1m-31 1h2m1 0h1m1 0h1m1 0h1m2 0h1m1 0h2m2 0h1m1 0h2m3 0h1m4 0h3m-32 1h1m1 0h1m1 0h2m2 0h1m1 0h5m1 0h1m1 0h1m2 0h1m1 0h1m2 0h1m2 0h2m1 0h1m-31 1h2m1 0h3m2 0h5m1 0h3m3 0h2m1 0h5m1 0h2m-32 1h5m1 0h2m1 0h1m1 0h1m2 0h1m2 0h2m2 0h1m3 0h3m3 0h1m-33 1h1m2 0h6m3 0h2m1 0h4m3 0h1m1 0h5m-21 1h3m2 0h4m1 0h2m4 0h1m3 0h2m-30 1h7m4 0h3m4 0h2m2 0h3m1 0h1m1 0h1m-29 1h1m5 0h1m1 0h1m1 0h1m3 0h3m2 0h6m3 0h4m-32 1h1m1 0h3m1 0h1m3 0h3m2 0h1m1 0h1m2 0h1m2 0h6m1 0h2m-32 1h1m1 0h3m1 0h1m1 0h1m1 0h2m1 0h4m2 0h2m2 0h1m3 0h1m1 0h4m-33 1h1m1 0h3m1 0h1m1 0h1m1 0h1m2 0h3m3 0h1m1 0h2m1 0h1m1 0h2m-28 1h1m5 0h1m1 0h1m2 0h4m1 0h1m2 0h1m2 0h1m1 0h1m1 0h3m3 0h1m-33 1h7m2 0h1m3 0h3m1 0h2m2 0h1m1 0h1m4 0h3"/></g></svg>
